<svg id="Layer_1" data-name="Layer 1" xmlns="http://www.w3.org/2000/svg" xmlns:xlink="http://www.w3.org/1999/xlink" viewBox="0 0 4532.36 1346.31"><defs><style>.cls-1,.cls-2,.cls-5{fill:none;}.cls-1,.cls-2,.cls-3,.cls-4,.cls-5{stroke-miterlimit:10;}.cls-1{stroke:url(#White_Black);}.cls-2{stroke:url(#White_Black-2);}.cls-3,.cls-6{fill:#fff;}.cls-3{stroke:url(#Orange_Yellow);}.cls-4{fill:#0069b4;stroke-width:25px;}.cls-4,.cls-5{stroke:#0069b4;}.cls-5{stroke-width:40px;}.cls-6{font-size:1050px;font-family:Verdana;}</style><linearGradient id="White_Black" x1="811.36" y1="650" x2="5343.72" y2="650" gradientTransform="translate(2427.54 3727.54) rotate(-90)" gradientUnits="userSpaceOnUse"><stop offset="0" stop-color="#fff"/><stop offset="1" stop-color="#1d1d1b"/></linearGradient><linearGradient id="White_Black-2" x1="10" y1="660.5" x2="4522.36" y2="660.5" gradientTransform="matrix(1, 0, 0, 1, 0, 0)" xlink:href="#White_Black"/><linearGradient id="Orange_Yellow" x1="1746.66" y1="741.08" x2="2447.66" y2="741.08" gradientUnits="userSpaceOnUse"><stop offset="0" stop-color="#ffef26"/><stop offset="0.02" stop-color="#ffea21"/><stop offset="0.1" stop-color="#fed70f"/><stop offset="0.19" stop-color="#fdcc04"/><stop offset="0.28" stop-color="#fdc800"/><stop offset="0.67" stop-color="#f18f34"/><stop offset="0.89" stop-color="#e95f32"/><stop offset="1" stop-color="#e3312d"/></linearGradient></defs><title>labzlink_final</title><rect class="cls-1" x="2417.54" y="-1615.68" width="1320" height="4531.36" rx="45.46" transform="translate(2916.18 -2417.04) rotate(90)"/><rect class="cls-2" x="10.5" y="10.5" width="4511.36" height="1300" rx="35.46"/><rect class="cls-3" x="1747.16" y="391.08" width="700" height="700" rx="35.46"/><path class="cls-4" d="M3114.43,500l-409.7,505.92h0c-9.72-12-9.79-31.37-.16-43.27l409.69-505.91h0C3124,468.71,3124.06,488.09,3114.43,500Z" transform="translate(-811.36 10.5)"/><path class="cls-4" d="M3035,489.19H2661.3c-2.39,0-3.75-3.42-2.31-5.81l12.23-20.25a13.57,13.57,0,0,1,11.64-6.42h384.31l-20.42,25.94c-.06.08-.12.14-.18.21C3043.33,486.43,3039.78,489.19,3035,489.19Z" transform="translate(-811.36 10.5)"/><path class="cls-4" d="M3131.21,1006.69H2751.67l19.11-24c3.94-5,6.35-7.14,7.48-8a2.5,2.5,0,0,1,1.5-.52h376.69c2.57,0,3.87,3.87,2.06,6.16l-15.57,19.79-.18.2C3139.52,1003.93,3136,1006.69,3131.21,1006.69Z" transform="translate(-811.36 10.5)"/><path class="cls-5" d="M2986.53,726l-90.72,113.55,2-2.2a1.43,1.43,0,0,1-1,.53l-125.82.4v0l-40.53.11-32.26.1a1.45,1.45,0,0,1-1-.52l-63.25-68.75-.12-67.92,59.72-65.55,8.15-4.14,100.74-.32,28.08-.1" transform="translate(-811.36 10.5)"/><path class="cls-5" d="M2829.76,738.32l90.72-113.55-3.09,3.32a1.45,1.45,0,0,1,1-.52l108.68-.35v0l56.22-.15h0l35.55-.12a1.43,1.43,0,0,1,1,.53l63.24,68.75.13,67.92-59.72,65.55-8.16,4.14-102.92.32v0l-26,.08" transform="translate(-811.36 10.5)"/><text class="cls-6" transform="translate(136.08 1027.92)">lab</text><text class="cls-6" transform="translate(2443.25 1027.92)">link</text></svg>