<svg id="Layer_1" data-name="Layer 1" xmlns="http://www.w3.org/2000/svg" xmlns:xlink="http://www.w3.org/1999/xlink" viewBox="0 0 701 701"><defs><style>.cls-1{fill:#fdfdfd;stroke:url(#Orange_Yellow);}.cls-1,.cls-2,.cls-3{stroke-miterlimit:10;}.cls-2{fill:#0069b4;stroke-width:25px;}.cls-2,.cls-3{stroke:#0069b4;}.cls-3{fill:none;stroke-width:40px;}</style><linearGradient id="Orange_Yellow" y1="350.5" x2="701" y2="350.5" gradientUnits="userSpaceOnUse"><stop offset="0" stop-color="#ffef26"/><stop offset="0.02" stop-color="#ffea21"/><stop offset="0.1" stop-color="#fed70f"/><stop offset="0.19" stop-color="#fdcc04"/><stop offset="0.28" stop-color="#fdc800"/><stop offset="0.67" stop-color="#f18f34"/><stop offset="0.89" stop-color="#e95f32"/><stop offset="1" stop-color="#e3312d"/></linearGradient></defs><title>z_logo_final</title><rect class="cls-1" x="0.5" y="0.5" width="700" height="700" rx="35.46"/><path class="cls-2" d="M555.91,118.28,146.21,624.2h0c-9.72-12-9.79-31.37-.16-43.26L555.74,75h0C565.47,87,565.54,106.39,555.91,118.28Z" transform="translate(0.5 1.62)"/><path class="cls-2" d="M476.5,107.49H102.78c-2.39,0-3.75-3.42-2.31-5.8L112.7,81.43A13.57,13.57,0,0,1,124.34,75H508.66L488.23,101l-.18.2C484.81,104.74,481.26,107.49,476.5,107.49Z" transform="translate(0.5 1.62)"/><path class="cls-2" d="M572.69,625H193.15l19.11-24c4-5,6.35-7.15,7.48-8a2.5,2.5,0,0,1,1.5-.52H597.93c2.57,0,3.87,3.87,2.06,6.16l-15.57,19.79-.18.2C581,622.24,577.45,625,572.69,625Z" transform="translate(0.5 1.62)"/><path class="cls-3" d="M428,344.34,337.29,457.89l2-2.19a1.45,1.45,0,0,1-1,.52l-125.82.4h0l-40.53.1-32.26.11a1.43,1.43,0,0,1-1-.53L75.35,387.54l-.13-67.92,59.72-65.55,8.15-4.14,100.74-.31,28.08-.1" transform="translate(0.5 1.62)"/><path class="cls-3" d="M271.24,356.62,362,243.07l-3.09,3.33a1.43,1.43,0,0,1,1-.53l108.68-.34v0l56.22-.15v0l35.56-.11a1.45,1.45,0,0,1,1,.52l63.24,68.75.13,67.92L565.06,448l-8.15,4.14L454,452.48v0l-26,.08" transform="translate(0.5 1.62)"/></svg>